
          <svg data-logo="logo" xmlns="http://www.w3.org/2000/svg" viewBox="0 0 263 38">
            <g id="logogram" transform="translate(0, 1.5) rotate(0)"><path d="M16.2628 0.600006H37.3443L21.8451 23.5729H0.76355L16.2628 0.600006Z" fill="#5E8DA1"/><path d="M17.1859 25.702L11.1827 34.6H33.2643L48.7635 11.6271H32.4659L22.9699 25.702H17.1859Z" fill="#4A495A"/></g>
            <g id="logotype" transform="translate(55, 1)"><path fill="#111111" d="M18.43 31.56L18.43 31.56Q15.21 31.56 12.89 30.48Q10.59 29.39 9.29 27.43Q8.00 25.47 7.82 22.81L7.82 22.81L13.18 22.56Q13.39 24.04 14.03 25.07Q14.68 26.10 15.78 26.63Q16.89 27.15 18.50 27.15L18.50 27.15Q19.83 27.15 20.75 26.84Q21.68 26.52 22.17 25.87Q22.66 25.23 22.66 24.28L22.66 24.28Q22.66 23.41 22.24 22.76Q21.82 22.11 20.63 21.57Q19.44 21.02 17.13 20.50L17.13 20.50Q13.95 19.77 12.00 18.85Q10.06 17.95 9.19 16.56Q8.31 15.18 8.31 13.08L8.31 13.08Q8.31 10.84 9.41 9.16Q10.52 7.48 12.62 6.53Q14.72 5.59 17.62 5.59L17.62 5.59Q20.70 5.59 22.84 6.67Q24.97 7.76 26.18 9.65Q27.39 11.54 27.63 13.99L27.63 13.99L22.31 14.27Q22.21 12.97 21.61 12.01Q21.02 11.05 20 10.52Q18.98 10.00 17.55 10.00L17.55 10.00Q15.73 10.00 14.70 10.80Q13.67 11.61 13.67 12.90L13.67 12.90Q13.67 13.81 14.14 14.43Q14.61 15.04 15.71 15.49Q16.82 15.95 18.84 16.37L18.84 16.37Q22.31 17.07 24.32 18.14Q26.34 19.20 27.18 20.67Q28.02 22.14 28.02 24.04L28.02 24.04Q28.02 26.34 26.84 28.04Q25.67 29.74 23.52 30.65Q21.37 31.56 18.43 31.56ZM42.65 31L38.09 31Q35.19 31 33.83 29.65Q32.46 28.30 32.46 25.36L32.46 25.36L32.46 7.83L37.71 7.83L37.71 24.73Q37.71 26.10 38.29 26.59Q38.87 27.08 40.02 27.08L40.02 27.08L42.65 27.08L42.65 31ZM42.65 16.16L29.45 16.16L29.45 12.24L42.65 12.24L42.65 16.16ZM55.81 31L44.96 31L44.96 6.15L54.62 6.15Q59.24 6.15 61.69 7.78Q64.14 9.40 64.14 12.90L64.14 12.90Q64.14 14.44 63.51 15.58Q62.88 16.72 61.67 17.38Q60.46 18.05 58.75 18.19L58.75 18.19L58.75 18.12Q61.86 18.33 63.52 19.92Q65.19 21.52 65.19 24.14L65.19 24.14Q65.19 27.61 62.75 29.30Q60.32 31 55.81 31L55.81 31ZM50.28 20.29L50.28 26.66L55.56 26.66Q57.49 26.66 58.66 25.87Q59.83 25.09 59.83 23.51L59.83 23.51Q59.83 21.93 58.66 21.11Q57.49 20.29 55.56 20.29L55.56 20.29L50.28 20.29ZM50.28 10.49L50.28 16.44L54.48 16.44Q56.44 16.44 57.61 15.67Q58.78 14.90 58.78 13.46L58.78 13.46Q58.78 11.92 57.64 11.21Q56.51 10.49 54.48 10.49L54.48 10.49L50.28 10.49ZM76.49 31.42L76.49 31.42Q73.62 31.42 71.49 30.21Q69.35 29.00 68.16 26.80Q66.97 24.59 66.97 21.62L66.97 21.62Q66.97 18.64 68.16 16.46Q69.35 14.27 71.49 13.04Q73.62 11.82 76.49 11.82L76.49 11.82Q79.36 11.82 81.50 13.04Q83.63 14.27 84.82 16.46Q86.01 18.64 86.01 21.62L86.01 21.62Q86.01 24.59 84.82 26.80Q83.63 29.00 81.50 30.21Q79.36 31.42 76.49 31.42ZM76.49 27.39L76.49 27.39Q78.45 27.39 79.54 25.87Q80.62 24.35 80.62 21.62L80.62 21.62Q80.62 18.89 79.54 17.37Q78.45 15.84 76.49 15.84L76.49 15.84Q74.53 15.84 73.45 17.37Q72.36 18.89 72.36 21.62L72.36 21.62Q72.36 24.35 73.45 25.87Q74.53 27.39 76.49 27.39ZM96.72 31.42L96.72 31.42Q93.85 31.42 91.72 30.21Q89.58 29.00 88.39 26.80Q87.20 24.59 87.20 21.62L87.20 21.62Q87.20 18.64 88.39 16.46Q89.58 14.27 91.72 13.04Q93.85 11.82 96.72 11.82L96.72 11.82Q99.59 11.82 101.73 13.04Q103.86 14.27 105.05 16.46Q106.24 18.64 106.24 21.62L106.24 21.62Q106.24 24.59 105.05 26.80Q103.86 29.00 101.73 30.21Q99.59 31.42 96.72 31.42ZM96.72 27.39L96.72 27.39Q98.68 27.39 99.77 25.87Q100.85 24.35 100.85 21.62L100.85 21.62Q100.85 18.89 99.77 17.37Q98.68 15.84 96.72 15.84L96.72 15.84Q94.76 15.84 93.68 17.37Q92.59 18.89 92.59 21.62L92.59 21.62Q92.59 24.35 93.68 25.87Q94.76 27.39 96.72 27.39ZM113.70 31L108.45 31L108.45 6.15L113.70 6.15L113.70 19.94L120.66 12.24L126.96 12.24L119.68 19.98L127.17 31L121.43 31L116.29 22.95L113.70 25.71L113.70 31ZM133.54 31L128.29 31L128.29 12.24L133.54 12.24L133.54 31ZM133.61 9.93L128.19 9.93L128.19 5.73L133.61 5.73L133.61 9.93ZM142.57 31L137.32 31L137.32 12.24L142.05 12.24L142.26 17.73L141.59 17.56Q141.87 15.46 142.73 14.20Q143.59 12.94 144.88 12.38Q146.18 11.82 147.72 11.82L147.72 11.82Q149.75 11.82 151.16 12.69Q152.58 13.57 153.33 15.16Q154.09 16.75 154.09 18.92L154.09 18.92L154.09 31L148.84 31L148.84 20.67Q148.84 19.17 148.59 18.12Q148.35 17.07 147.72 16.53Q147.09 15.98 145.97 15.98L145.97 15.98Q144.32 15.98 143.45 17.19Q142.57 18.40 142.57 20.67L142.57 20.67L142.57 31ZM162.76 31.42L162.76 31.42Q159.86 31.42 158.02 30.07Q156.18 28.73 156.18 26.31L156.18 26.31Q156.18 23.82 157.74 22.48Q159.30 21.13 162.34 20.50L162.34 20.50L168.40 19.31Q168.40 17.49 167.58 16.56Q166.75 15.63 165.21 15.63L165.21 15.63Q163.71 15.63 162.87 16.32Q162.03 17 161.78 18.33L161.78 18.33L156.50 18.09Q157.02 15.00 159.28 13.41Q161.54 11.82 165.21 11.82L165.21 11.82Q169.41 11.82 171.53 13.81Q173.65 15.81 173.65 19.66L173.65 19.66L173.65 26.06Q173.65 26.87 173.91 27.13Q174.17 27.39 174.70 27.39L174.70 27.39L175.22 27.39L175.22 31Q174.98 31.07 174.44 31.14Q173.89 31.21 173.37 31.21L173.37 31.21Q172.25 31.21 171.29 30.82Q170.32 30.44 169.73 29.51Q169.13 28.59 169.13 26.87L169.13 26.87L169.59 27.22Q169.24 28.48 168.35 29.43Q167.45 30.37 166.04 30.89Q164.62 31.42 162.76 31.42ZM164.02 27.81L164.02 27.81Q165.32 27.81 166.30 27.31Q167.28 26.80 167.84 25.82Q168.40 24.84 168.40 23.51L168.40 23.51L168.40 22.60L164.13 23.51Q162.87 23.75 162.22 24.33Q161.57 24.91 161.57 25.82L161.57 25.82Q161.57 26.77 162.20 27.29Q162.83 27.81 164.02 27.81ZM182.19 31L176.94 31L176.94 12.24L181.91 12.24L182.08 17.70L181.70 17.59Q182.15 14.76 183.31 13.50Q184.46 12.24 186.49 12.24L186.49 12.24L188.21 12.24L188.21 16.58L186.49 16.58Q185.02 16.58 184.08 16.96Q183.13 17.35 182.66 18.19Q182.19 19.03 182.19 20.46L182.19 20.46L182.19 31ZM195.10 36.25L191.53 36.25L191.53 32.33L194.02 32.33Q194.93 32.33 195.37 32.07Q195.80 31.80 196.05 31.14L196.05 31.14L196.43 30.05L195.00 30.05L188.42 12.24L193.77 12.24L198.08 25.16L202.10 12.24L207.46 12.24L200.25 32.78Q199.62 34.64 198.43 35.45Q197.24 36.25 195.10 36.25L195.10 36.25Z"/></g>
            
          </svg>
        